<mxfile host="app.diagrams.net" modified="2023-11-07T16:04:11.892Z" agent="Mozilla/5.0 (Macintosh; Intel Mac OS X 10_15_7) AppleWebKit/537.36 (KHTML, like Gecko) Chrome/119.0.0.0 Safari/537.36" etag="rmg0sOPhdLKb0w5ihcmg" version="21.7.2" type="github">
  <diagram id="C5RBs43oDa-KdzZeNtuy" name="Page-1">
    <mxGraphModel dx="710" dy="560" grid="1" gridSize="10" guides="1" tooltips="1" connect="1" arrows="1" fold="1" page="1" pageScale="1" pageWidth="827" pageHeight="1169" math="0" shadow="0">
      <root>
        <mxCell id="WIyWlLk6GJQsqaUBKTNV-0" />
        <mxCell id="WIyWlLk6GJQsqaUBKTNV-1" parent="WIyWlLk6GJQsqaUBKTNV-0" />
        <mxCell id="WIyWlLk6GJQsqaUBKTNV-2" value="" style="rounded=0;html=1;jettySize=auto;orthogonalLoop=1;fontSize=11;endArrow=block;endFill=0;endSize=8;strokeWidth=1;shadow=0;labelBackgroundColor=none;edgeStyle=orthogonalEdgeStyle;" parent="WIyWlLk6GJQsqaUBKTNV-1" source="WIyWlLk6GJQsqaUBKTNV-3" target="WIyWlLk6GJQsqaUBKTNV-6" edge="1">
          <mxGeometry relative="1" as="geometry" />
        </mxCell>
        <mxCell id="WIyWlLk6GJQsqaUBKTNV-3" value="start" style="rounded=1;whiteSpace=wrap;html=1;fontSize=12;glass=0;strokeWidth=1;shadow=0;" parent="WIyWlLk6GJQsqaUBKTNV-1" vertex="1">
          <mxGeometry x="50" y="20" width="120" height="40" as="geometry" />
        </mxCell>
        <mxCell id="OP_QUCVTjhbAKhcLgrXL-13" style="edgeStyle=orthogonalEdgeStyle;rounded=0;orthogonalLoop=1;jettySize=auto;html=1;" edge="1" parent="WIyWlLk6GJQsqaUBKTNV-1" source="WIyWlLk6GJQsqaUBKTNV-6" target="OP_QUCVTjhbAKhcLgrXL-17">
          <mxGeometry relative="1" as="geometry">
            <mxPoint x="170" y="350" as="targetPoint" />
          </mxGeometry>
        </mxCell>
        <mxCell id="OP_QUCVTjhbAKhcLgrXL-18" style="edgeStyle=orthogonalEdgeStyle;rounded=0;orthogonalLoop=1;jettySize=auto;html=1;exitX=1;exitY=0.5;exitDx=0;exitDy=0;entryX=0;entryY=0.5;entryDx=0;entryDy=0;" edge="1" parent="WIyWlLk6GJQsqaUBKTNV-1" source="WIyWlLk6GJQsqaUBKTNV-6" target="OP_QUCVTjhbAKhcLgrXL-15">
          <mxGeometry relative="1" as="geometry" />
        </mxCell>
        <mxCell id="WIyWlLk6GJQsqaUBKTNV-6" value="&lt;p&gt;&lt;font style=&quot;font-size: 8px;&quot;&gt;1. Transfer money&lt;/font&gt;&lt;/p&gt;&lt;p&gt;&lt;font style=&quot;font-size: 8px;&quot;&gt;2. Make payment&lt;/font&gt;&lt;/p&gt;&lt;p&gt;&lt;font style=&quot;font-size: 8px;&quot;&gt;3. Request for paycard&lt;/font&gt;&lt;/p&gt;&lt;p&gt;&lt;font style=&quot;font-size: 8px;&quot;&gt;4. Be a Machhant&lt;/font&gt;&lt;/p&gt;&lt;p&gt;&lt;font style=&quot;font-size: 8px;&quot;&gt;5. Customer&amp;nbsp;&lt;/font&gt;&lt;/p&gt;" style="rhombus;whiteSpace=wrap;html=1;shadow=0;fontFamily=Helvetica;fontSize=12;align=center;strokeWidth=1;spacing=6;spacingTop=-4;" parent="WIyWlLk6GJQsqaUBKTNV-1" vertex="1">
          <mxGeometry y="102.5" width="220" height="200" as="geometry" />
        </mxCell>
        <mxCell id="OP_QUCVTjhbAKhcLgrXL-5" style="edgeStyle=orthogonalEdgeStyle;rounded=0;orthogonalLoop=1;jettySize=auto;html=1;" edge="1" parent="WIyWlLk6GJQsqaUBKTNV-1" source="OP_QUCVTjhbAKhcLgrXL-0" target="OP_QUCVTjhbAKhcLgrXL-6">
          <mxGeometry relative="1" as="geometry">
            <mxPoint x="670" y="200" as="targetPoint" />
          </mxGeometry>
        </mxCell>
        <mxCell id="OP_QUCVTjhbAKhcLgrXL-7" style="edgeStyle=orthogonalEdgeStyle;rounded=0;orthogonalLoop=1;jettySize=auto;html=1;" edge="1" parent="WIyWlLk6GJQsqaUBKTNV-1" source="OP_QUCVTjhbAKhcLgrXL-0" target="OP_QUCVTjhbAKhcLgrXL-8">
          <mxGeometry relative="1" as="geometry">
            <mxPoint x="485" y="370" as="targetPoint" />
          </mxGeometry>
        </mxCell>
        <mxCell id="OP_QUCVTjhbAKhcLgrXL-10" style="edgeStyle=orthogonalEdgeStyle;rounded=0;orthogonalLoop=1;jettySize=auto;html=1;" edge="1" parent="WIyWlLk6GJQsqaUBKTNV-1" source="OP_QUCVTjhbAKhcLgrXL-0" target="OP_QUCVTjhbAKhcLgrXL-11">
          <mxGeometry relative="1" as="geometry">
            <mxPoint x="485" y="40" as="targetPoint" />
          </mxGeometry>
        </mxCell>
        <mxCell id="OP_QUCVTjhbAKhcLgrXL-0" value="&lt;meta charset=&quot;utf-8&quot;&gt;&lt;p&gt;1. Cash/ bank transfer&lt;/p&gt;&lt;p&gt;2. enaira&lt;/p&gt;&lt;p&gt;3.  crypto&lt;/p&gt;" style="strokeWidth=2;html=1;shape=mxgraph.flowchart.decision;whiteSpace=wrap;" vertex="1" parent="WIyWlLk6GJQsqaUBKTNV-1">
          <mxGeometry x="390" y="97.5" width="190" height="205" as="geometry" />
        </mxCell>
        <mxCell id="OP_QUCVTjhbAKhcLgrXL-2" value="&lt;span style=&quot;color: rgb(0, 0, 0); font-family: Helvetica; font-size: 12px; font-style: normal; font-variant-ligatures: normal; font-variant-caps: normal; font-weight: 400; letter-spacing: normal; orphans: 2; text-align: center; text-indent: 0px; text-transform: none; widows: 2; word-spacing: 0px; -webkit-text-stroke-width: 0px; background-color: rgb(251, 251, 251); text-decoration-thickness: initial; text-decoration-style: initial; text-decoration-color: initial; float: none; display: inline !important;&quot;&gt;enaira process&lt;/span&gt;" style="rounded=1;whiteSpace=wrap;html=1;absoluteArcSize=1;arcSize=14;strokeWidth=2;" vertex="1" parent="WIyWlLk6GJQsqaUBKTNV-1">
          <mxGeometry x="440" y="450" width="100" height="40" as="geometry" />
        </mxCell>
        <mxCell id="OP_QUCVTjhbAKhcLgrXL-3" value="enaira" style="text;html=1;align=center;verticalAlign=middle;resizable=0;points=[];autosize=1;strokeColor=none;fillColor=none;" vertex="1" parent="WIyWlLk6GJQsqaUBKTNV-1">
          <mxGeometry x="480" y="410" width="60" height="30" as="geometry" />
        </mxCell>
        <mxCell id="OP_QUCVTjhbAKhcLgrXL-19" style="edgeStyle=orthogonalEdgeStyle;rounded=0;orthogonalLoop=1;jettySize=auto;html=1;" edge="1" parent="WIyWlLk6GJQsqaUBKTNV-1" source="OP_QUCVTjhbAKhcLgrXL-6" target="OP_QUCVTjhbAKhcLgrXL-20">
          <mxGeometry relative="1" as="geometry">
            <mxPoint x="720" y="200" as="targetPoint" />
          </mxGeometry>
        </mxCell>
        <mxCell id="OP_QUCVTjhbAKhcLgrXL-6" value="1." style="html=1;strokeWidth=2;shape=manualInput;whiteSpace=wrap;rounded=1;size=26;arcSize=11;" vertex="1" parent="WIyWlLk6GJQsqaUBKTNV-1">
          <mxGeometry x="610" y="175" width="70" height="50" as="geometry" />
        </mxCell>
        <mxCell id="OP_QUCVTjhbAKhcLgrXL-9" style="edgeStyle=orthogonalEdgeStyle;rounded=0;orthogonalLoop=1;jettySize=auto;html=1;entryX=0.41;entryY=-0.075;entryDx=0;entryDy=0;entryPerimeter=0;" edge="1" parent="WIyWlLk6GJQsqaUBKTNV-1" source="OP_QUCVTjhbAKhcLgrXL-8" target="OP_QUCVTjhbAKhcLgrXL-2">
          <mxGeometry relative="1" as="geometry" />
        </mxCell>
        <mxCell id="OP_QUCVTjhbAKhcLgrXL-8" value="2" style="html=1;strokeWidth=2;shape=manualInput;whiteSpace=wrap;rounded=1;size=26;arcSize=11;" vertex="1" parent="WIyWlLk6GJQsqaUBKTNV-1">
          <mxGeometry x="435" y="340" width="100" height="60" as="geometry" />
        </mxCell>
        <mxCell id="OP_QUCVTjhbAKhcLgrXL-12" style="edgeStyle=orthogonalEdgeStyle;rounded=0;orthogonalLoop=1;jettySize=auto;html=1;" edge="1" parent="WIyWlLk6GJQsqaUBKTNV-1" source="OP_QUCVTjhbAKhcLgrXL-11">
          <mxGeometry relative="1" as="geometry">
            <mxPoint x="580" y="40" as="targetPoint" />
          </mxGeometry>
        </mxCell>
        <mxCell id="OP_QUCVTjhbAKhcLgrXL-11" value="3" style="html=1;strokeWidth=2;shape=manualInput;whiteSpace=wrap;rounded=1;size=26;arcSize=11;" vertex="1" parent="WIyWlLk6GJQsqaUBKTNV-1">
          <mxGeometry x="435" y="10" width="100" height="60" as="geometry" />
        </mxCell>
        <mxCell id="OP_QUCVTjhbAKhcLgrXL-16" style="edgeStyle=orthogonalEdgeStyle;rounded=0;orthogonalLoop=1;jettySize=auto;html=1;" edge="1" parent="WIyWlLk6GJQsqaUBKTNV-1" source="OP_QUCVTjhbAKhcLgrXL-15" target="OP_QUCVTjhbAKhcLgrXL-0">
          <mxGeometry relative="1" as="geometry" />
        </mxCell>
        <mxCell id="OP_QUCVTjhbAKhcLgrXL-15" value="1" style="html=1;strokeWidth=2;shape=manualInput;whiteSpace=wrap;rounded=1;size=26;arcSize=11;" vertex="1" parent="WIyWlLk6GJQsqaUBKTNV-1">
          <mxGeometry x="260" y="170" width="100" height="60" as="geometry" />
        </mxCell>
        <mxCell id="OP_QUCVTjhbAKhcLgrXL-17" value="2" style="html=1;strokeWidth=2;shape=manualInput;whiteSpace=wrap;rounded=1;size=26;arcSize=11;" vertex="1" parent="WIyWlLk6GJQsqaUBKTNV-1">
          <mxGeometry x="60" y="330" width="100" height="60" as="geometry" />
        </mxCell>
        <mxCell id="OP_QUCVTjhbAKhcLgrXL-21" style="edgeStyle=orthogonalEdgeStyle;rounded=0;orthogonalLoop=1;jettySize=auto;html=1;" edge="1" parent="WIyWlLk6GJQsqaUBKTNV-1" source="OP_QUCVTjhbAKhcLgrXL-20" target="OP_QUCVTjhbAKhcLgrXL-22">
          <mxGeometry relative="1" as="geometry">
            <mxPoint x="777" y="290" as="targetPoint" />
          </mxGeometry>
        </mxCell>
        <mxCell id="OP_QUCVTjhbAKhcLgrXL-24" style="edgeStyle=orthogonalEdgeStyle;rounded=0;orthogonalLoop=1;jettySize=auto;html=1;" edge="1" parent="WIyWlLk6GJQsqaUBKTNV-1" source="OP_QUCVTjhbAKhcLgrXL-20" target="OP_QUCVTjhbAKhcLgrXL-25">
          <mxGeometry relative="1" as="geometry">
            <mxPoint x="860" y="200" as="targetPoint" />
          </mxGeometry>
        </mxCell>
        <mxCell id="OP_QUCVTjhbAKhcLgrXL-20" value="&lt;p&gt;&lt;font style=&quot;font-size: 8px;&quot;&gt;1. Transfer Money&lt;/font&gt;&lt;/p&gt;&lt;p&gt;&lt;font style=&quot;font-size: 8px;&quot;&gt;2. Make&amp;nbsp;&lt;/font&gt;&lt;span style=&quot;font-size: 8px; background-color: initial;&quot;&gt;Payment&lt;/span&gt;&lt;/p&gt;" style="strokeWidth=2;html=1;shape=mxgraph.flowchart.decision;whiteSpace=wrap;" vertex="1" parent="WIyWlLk6GJQsqaUBKTNV-1">
          <mxGeometry x="727" y="150" width="100" height="100" as="geometry" />
        </mxCell>
        <mxCell id="OP_QUCVTjhbAKhcLgrXL-31" value="" style="edgeStyle=orthogonalEdgeStyle;rounded=0;orthogonalLoop=1;jettySize=auto;html=1;" edge="1" parent="WIyWlLk6GJQsqaUBKTNV-1" source="OP_QUCVTjhbAKhcLgrXL-22" target="OP_QUCVTjhbAKhcLgrXL-30">
          <mxGeometry relative="1" as="geometry" />
        </mxCell>
        <mxCell id="OP_QUCVTjhbAKhcLgrXL-22" value="1" style="html=1;strokeWidth=2;shape=manualInput;whiteSpace=wrap;rounded=1;size=26;arcSize=11;" vertex="1" parent="WIyWlLk6GJQsqaUBKTNV-1">
          <mxGeometry x="740.5" y="290" width="73" height="50" as="geometry" />
        </mxCell>
        <mxCell id="OP_QUCVTjhbAKhcLgrXL-58" value="" style="edgeStyle=orthogonalEdgeStyle;rounded=0;orthogonalLoop=1;jettySize=auto;html=1;entryX=0.5;entryY=0;entryDx=0;entryDy=0;" edge="1" parent="WIyWlLk6GJQsqaUBKTNV-1" source="OP_QUCVTjhbAKhcLgrXL-25" target="OP_QUCVTjhbAKhcLgrXL-60">
          <mxGeometry relative="1" as="geometry">
            <mxPoint x="1220" y="258" as="targetPoint" />
          </mxGeometry>
        </mxCell>
        <mxCell id="OP_QUCVTjhbAKhcLgrXL-25" value="2" style="html=1;strokeWidth=2;shape=manualInput;whiteSpace=wrap;rounded=1;size=26;arcSize=11;" vertex="1" parent="WIyWlLk6GJQsqaUBKTNV-1">
          <mxGeometry x="1054.06" y="175" width="60" height="50" as="geometry" />
        </mxCell>
        <mxCell id="OP_QUCVTjhbAKhcLgrXL-34" value="" style="edgeStyle=orthogonalEdgeStyle;rounded=0;orthogonalLoop=1;jettySize=auto;html=1;" edge="1" parent="WIyWlLk6GJQsqaUBKTNV-1" source="OP_QUCVTjhbAKhcLgrXL-37" target="OP_QUCVTjhbAKhcLgrXL-33">
          <mxGeometry relative="1" as="geometry" />
        </mxCell>
        <mxCell id="OP_QUCVTjhbAKhcLgrXL-30" value="&lt;font style=&quot;font-size: 8px;&quot;&gt;Pay with:&amp;nbsp;&lt;br&gt;1. BTC&lt;br&gt;2. ETH&lt;br&gt;3. BNB&lt;br&gt;4. TRX&lt;br&gt;5. USDT&lt;br&gt;&lt;br&gt;&lt;/font&gt;" style="rhombus;whiteSpace=wrap;html=1;strokeWidth=2;rounded=1;arcSize=11;" vertex="1" parent="WIyWlLk6GJQsqaUBKTNV-1">
          <mxGeometry x="718.88" y="380" width="116.25" height="125" as="geometry" />
        </mxCell>
        <mxCell id="OP_QUCVTjhbAKhcLgrXL-40" style="edgeStyle=orthogonalEdgeStyle;rounded=0;orthogonalLoop=1;jettySize=auto;html=1;" edge="1" parent="WIyWlLk6GJQsqaUBKTNV-1" source="OP_QUCVTjhbAKhcLgrXL-33" target="OP_QUCVTjhbAKhcLgrXL-41">
          <mxGeometry relative="1" as="geometry">
            <mxPoint x="1028.125" y="540" as="targetPoint" />
          </mxGeometry>
        </mxCell>
        <mxCell id="OP_QUCVTjhbAKhcLgrXL-33" value="&lt;font style=&quot;font-size: 8px;&quot;&gt;Choose network:&amp;nbsp;&lt;br&gt;1. BTC&lt;br&gt;&lt;br&gt;&lt;/font&gt;" style="rhombus;whiteSpace=wrap;html=1;strokeWidth=2;rounded=1;arcSize=11;" vertex="1" parent="WIyWlLk6GJQsqaUBKTNV-1">
          <mxGeometry x="970" y="380" width="116.25" height="125" as="geometry" />
        </mxCell>
        <mxCell id="OP_QUCVTjhbAKhcLgrXL-38" value="" style="edgeStyle=orthogonalEdgeStyle;rounded=0;orthogonalLoop=1;jettySize=auto;html=1;" edge="1" parent="WIyWlLk6GJQsqaUBKTNV-1" source="OP_QUCVTjhbAKhcLgrXL-30" target="OP_QUCVTjhbAKhcLgrXL-37">
          <mxGeometry relative="1" as="geometry">
            <mxPoint x="830" y="425" as="sourcePoint" />
            <mxPoint x="910" y="425" as="targetPoint" />
          </mxGeometry>
        </mxCell>
        <mxCell id="OP_QUCVTjhbAKhcLgrXL-37" value="1" style="html=1;strokeWidth=2;shape=manualInput;whiteSpace=wrap;rounded=1;size=26;arcSize=11;" vertex="1" parent="WIyWlLk6GJQsqaUBKTNV-1">
          <mxGeometry x="880" y="420" width="50" height="45" as="geometry" />
        </mxCell>
        <mxCell id="OP_QUCVTjhbAKhcLgrXL-43" value="" style="edgeStyle=orthogonalEdgeStyle;rounded=0;orthogonalLoop=1;jettySize=auto;html=1;" edge="1" parent="WIyWlLk6GJQsqaUBKTNV-1" source="OP_QUCVTjhbAKhcLgrXL-41" target="OP_QUCVTjhbAKhcLgrXL-42">
          <mxGeometry relative="1" as="geometry" />
        </mxCell>
        <mxCell id="OP_QUCVTjhbAKhcLgrXL-41" value="1" style="html=1;strokeWidth=2;shape=manualInput;whiteSpace=wrap;rounded=1;size=26;arcSize=11;" vertex="1" parent="WIyWlLk6GJQsqaUBKTNV-1">
          <mxGeometry x="1002.18" y="530" width="51.88" height="40" as="geometry" />
        </mxCell>
        <mxCell id="OP_QUCVTjhbAKhcLgrXL-46" style="edgeStyle=orthogonalEdgeStyle;rounded=0;orthogonalLoop=1;jettySize=auto;html=1;" edge="1" parent="WIyWlLk6GJQsqaUBKTNV-1" source="OP_QUCVTjhbAKhcLgrXL-42" target="OP_QUCVTjhbAKhcLgrXL-47">
          <mxGeometry relative="1" as="geometry">
            <mxPoint x="1028.12" y="800" as="targetPoint" />
          </mxGeometry>
        </mxCell>
        <mxCell id="OP_QUCVTjhbAKhcLgrXL-42" value="&lt;span style=&quot;color: rgb(0, 0, 0); font-family: Helvetica; font-size: 8px; font-style: normal; font-variant-ligatures: normal; font-variant-caps: normal; font-weight: 400; letter-spacing: normal; orphans: 2; text-align: center; text-indent: 0px; text-transform: none; widows: 2; word-spacing: 0px; -webkit-text-stroke-width: 0px; background-color: rgb(251, 251, 251); text-decoration-thickness: initial; text-decoration-style: initial; text-decoration-color: initial; float: none; display: inline !important;&quot;&gt;How do we &lt;br&gt;estimate your pay:&amp;nbsp;&lt;/span&gt;&lt;br style=&quot;border-color: var(--border-color); color: rgb(0, 0, 0); font-family: Helvetica; font-size: 8px; font-style: normal; font-variant-ligatures: normal; font-variant-caps: normal; font-weight: 400; letter-spacing: normal; orphans: 2; text-align: center; text-indent: 0px; text-transform: none; widows: 2; word-spacing: 0px; -webkit-text-stroke-width: 0px; background-color: rgb(251, 251, 251); text-decoration-thickness: initial; text-decoration-style: initial; text-decoration-color: initial;&quot;&gt;&lt;span style=&quot;color: rgb(0, 0, 0); font-family: Helvetica; font-size: 8px; font-style: normal; font-variant-ligatures: normal; font-variant-caps: normal; font-weight: 400; letter-spacing: normal; orphans: 2; text-align: center; text-indent: 0px; text-transform: none; widows: 2; word-spacing: 0px; -webkit-text-stroke-width: 0px; background-color: rgb(251, 251, 251); text-decoration-thickness: initial; text-decoration-style: initial; text-decoration-color: initial; float: none; display: inline !important;&quot;&gt;1. Naira&lt;/span&gt;&lt;br style=&quot;border-color: var(--border-color); color: rgb(0, 0, 0); font-family: Helvetica; font-size: 8px; font-style: normal; font-variant-ligatures: normal; font-variant-caps: normal; font-weight: 400; letter-spacing: normal; orphans: 2; text-align: center; text-indent: 0px; text-transform: none; widows: 2; word-spacing: 0px; -webkit-text-stroke-width: 0px; background-color: rgb(251, 251, 251); text-decoration-thickness: initial; text-decoration-style: initial; text-decoration-color: initial;&quot;&gt;&lt;span style=&quot;color: rgb(0, 0, 0); font-family: Helvetica; font-size: 8px; font-style: normal; font-variant-ligatures: normal; font-variant-caps: normal; font-weight: 400; letter-spacing: normal; orphans: 2; text-align: center; text-indent: 0px; text-transform: none; widows: 2; word-spacing: 0px; -webkit-text-stroke-width: 0px; background-color: rgb(251, 251, 251); text-decoration-thickness: initial; text-decoration-style: initial; text-decoration-color: initial; float: none; display: inline !important;&quot;&gt;2. Dollar&lt;/span&gt;&lt;br style=&quot;border-color: var(--border-color); color: rgb(0, 0, 0); font-family: Helvetica; font-size: 8px; font-style: normal; font-variant-ligatures: normal; font-variant-caps: normal; font-weight: 400; letter-spacing: normal; orphans: 2; text-align: center; text-indent: 0px; text-transform: none; widows: 2; word-spacing: 0px; -webkit-text-stroke-width: 0px; background-color: rgb(251, 251, 251); text-decoration-thickness: initial; text-decoration-style: initial; text-decoration-color: initial;&quot;&gt;&lt;span style=&quot;color: rgb(0, 0, 0); font-family: Helvetica; font-size: 8px; font-style: normal; font-variant-ligatures: normal; font-variant-caps: normal; font-weight: 400; letter-spacing: normal; orphans: 2; text-align: center; text-indent: 0px; text-transform: none; widows: 2; word-spacing: 0px; -webkit-text-stroke-width: 0px; background-color: rgb(251, 251, 251); text-decoration-thickness: initial; text-decoration-style: initial; text-decoration-color: initial; float: none; display: inline !important;&quot;&gt;3.Crypto&lt;/span&gt;&lt;br style=&quot;border-color: var(--border-color); color: rgb(0, 0, 0); font-family: Helvetica; font-size: 8px; font-style: normal; font-variant-ligatures: normal; font-variant-caps: normal; font-weight: 400; letter-spacing: normal; orphans: 2; text-align: center; text-indent: 0px; text-transform: none; widows: 2; word-spacing: 0px; -webkit-text-stroke-width: 0px; background-color: rgb(251, 251, 251); text-decoration-thickness: initial; text-decoration-style: initial; text-decoration-color: initial;&quot;&gt;" style="rhombus;whiteSpace=wrap;html=1;strokeWidth=2;rounded=1;arcSize=11;" vertex="1" parent="WIyWlLk6GJQsqaUBKTNV-1">
          <mxGeometry x="949.68" y="610" width="156.88" height="140" as="geometry" />
        </mxCell>
        <mxCell id="OP_QUCVTjhbAKhcLgrXL-50" value="" style="edgeStyle=orthogonalEdgeStyle;rounded=0;orthogonalLoop=1;jettySize=auto;html=1;" edge="1" parent="WIyWlLk6GJQsqaUBKTNV-1" source="OP_QUCVTjhbAKhcLgrXL-47" target="OP_QUCVTjhbAKhcLgrXL-49">
          <mxGeometry relative="1" as="geometry" />
        </mxCell>
        <mxCell id="OP_QUCVTjhbAKhcLgrXL-47" value="&lt;span style=&quot;font-size: 8px;&quot;&gt;Enter the amount to pay in naira&lt;/span&gt;" style="html=1;strokeWidth=2;shape=manualInput;whiteSpace=wrap;rounded=1;size=26;arcSize=11;" vertex="1" parent="WIyWlLk6GJQsqaUBKTNV-1">
          <mxGeometry x="980" y="780" width="100" height="80" as="geometry" />
        </mxCell>
        <mxCell id="OP_QUCVTjhbAKhcLgrXL-51" style="edgeStyle=orthogonalEdgeStyle;rounded=0;orthogonalLoop=1;jettySize=auto;html=1;" edge="1" parent="WIyWlLk6GJQsqaUBKTNV-1" source="OP_QUCVTjhbAKhcLgrXL-49" target="OP_QUCVTjhbAKhcLgrXL-52">
          <mxGeometry relative="1" as="geometry">
            <mxPoint x="1030" y="1030" as="targetPoint" />
          </mxGeometry>
        </mxCell>
        <mxCell id="OP_QUCVTjhbAKhcLgrXL-49" value="&lt;span style=&quot;border-color: var(--border-color); color: rgb(0, 0, 0); font-family: Helvetica; font-style: normal; font-variant-ligatures: normal; font-variant-caps: normal; font-weight: 400; letter-spacing: normal; orphans: 2; text-align: center; text-indent: 0px; text-transform: none; widows: 2; word-spacing: 0px; -webkit-text-stroke-width: 0px; text-decoration-thickness: initial; text-decoration-style: initial; text-decoration-color: initial; font-size: 8px; background-color: rgb(251, 251, 251); float: none; display: inline !important;&quot;&gt;How do we&lt;br style=&quot;border-color: var(--border-color);&quot;&gt;add your charges:&amp;nbsp;&lt;/span&gt;&lt;br style=&quot;border-color: var(--border-color); color: rgb(0, 0, 0); font-family: Helvetica; font-style: normal; font-variant-ligatures: normal; font-variant-caps: normal; font-weight: 400; letter-spacing: normal; orphans: 2; text-align: center; text-indent: 0px; text-transform: none; widows: 2; word-spacing: 0px; -webkit-text-stroke-width: 0px; text-decoration-thickness: initial; text-decoration-style: initial; text-decoration-color: initial; font-size: 8px; background-color: rgb(251, 251, 251);&quot;&gt;&lt;span style=&quot;border-color: var(--border-color); color: rgb(0, 0, 0); font-family: Helvetica; font-style: normal; font-variant-ligatures: normal; font-variant-caps: normal; font-weight: 400; letter-spacing: normal; orphans: 2; text-align: center; text-indent: 0px; text-transform: none; widows: 2; word-spacing: 0px; -webkit-text-stroke-width: 0px; text-decoration-thickness: initial; text-decoration-style: initial; text-decoration-color: initial; font-size: 8px; background-color: rgb(251, 251, 251); float: none; display: inline !important;&quot;&gt;1. add charges&amp;nbsp;&lt;/span&gt;&lt;br style=&quot;border-color: var(--border-color); color: rgb(0, 0, 0); font-family: Helvetica; font-style: normal; font-variant-ligatures: normal; font-variant-caps: normal; font-weight: 400; letter-spacing: normal; orphans: 2; text-align: center; text-indent: 0px; text-transform: none; widows: 2; word-spacing: 0px; -webkit-text-stroke-width: 0px; text-decoration-thickness: initial; text-decoration-style: initial; text-decoration-color: initial; font-size: 8px; background-color: rgb(251, 251, 251);&quot;&gt;&lt;span style=&quot;border-color: var(--border-color); color: rgb(0, 0, 0); font-family: Helvetica; font-style: normal; font-variant-ligatures: normal; font-variant-caps: normal; font-weight: 400; letter-spacing: normal; orphans: 2; text-align: center; text-indent: 0px; text-transform: none; widows: 2; word-spacing: 0px; -webkit-text-stroke-width: 0px; text-decoration-thickness: initial; text-decoration-style: initial; text-decoration-color: initial; font-size: 8px; background-color: rgb(251, 251, 251); float: none; display: inline !important;&quot;&gt;2. Don&#39;t add charges&lt;/span&gt;&lt;br style=&quot;border-color: var(--border-color); color: rgb(0, 0, 0); font-family: Helvetica; font-style: normal; font-variant-ligatures: normal; font-variant-caps: normal; font-weight: 400; letter-spacing: normal; orphans: 2; text-align: center; text-indent: 0px; text-transform: none; widows: 2; word-spacing: 0px; -webkit-text-stroke-width: 0px; text-decoration-thickness: initial; text-decoration-style: initial; text-decoration-color: initial; font-size: 8px; background-color: rgb(251, 251, 251);&quot;&gt;&lt;span style=&quot;border-color: var(--border-color); color: rgb(0, 0, 0); font-family: Helvetica; font-style: normal; font-variant-ligatures: normal; font-variant-caps: normal; font-weight: 400; letter-spacing: normal; orphans: 2; text-align: center; text-indent: 0px; text-transform: none; widows: 2; word-spacing: 0px; -webkit-text-stroke-width: 0px; text-decoration-thickness: initial; text-decoration-style: initial; text-decoration-color: initial; font-size: 8px; background-color: rgb(251, 251, 251); float: none; display: inline !important;&quot;&gt;3.Crypto&lt;/span&gt;" style="rhombus;whiteSpace=wrap;html=1;strokeWidth=2;rounded=1;arcSize=11;" vertex="1" parent="WIyWlLk6GJQsqaUBKTNV-1">
          <mxGeometry x="960" y="880" width="140" height="110" as="geometry" />
        </mxCell>
        <mxCell id="OP_QUCVTjhbAKhcLgrXL-54" style="edgeStyle=orthogonalEdgeStyle;rounded=0;orthogonalLoop=1;jettySize=auto;html=1;" edge="1" parent="WIyWlLk6GJQsqaUBKTNV-1" source="OP_QUCVTjhbAKhcLgrXL-52" target="OP_QUCVTjhbAKhcLgrXL-55">
          <mxGeometry relative="1" as="geometry">
            <mxPoint x="1030" y="1130" as="targetPoint" />
          </mxGeometry>
        </mxCell>
        <mxCell id="OP_QUCVTjhbAKhcLgrXL-52" value="&lt;font style=&quot;font-size: 8px;&quot;&gt;You would receive Nxx,xxx&amp;nbsp;&lt;/font&gt;&amp;nbsp;&lt;br&gt;&lt;font style=&quot;font-size: 8px;&quot;&gt;You will send 0.xxx BTC,&lt;br&gt;&lt;/font&gt;&lt;font style=&quot;font-size: 8px;&quot;&gt;wallet address is 0x123wedsw3&lt;/font&gt;" style="strokeWidth=2;html=1;shape=mxgraph.flowchart.display;whiteSpace=wrap;" vertex="1" parent="WIyWlLk6GJQsqaUBKTNV-1">
          <mxGeometry x="950" y="1030" width="160" height="80" as="geometry" />
        </mxCell>
        <mxCell id="OP_QUCVTjhbAKhcLgrXL-55" value="End process" style="strokeWidth=2;html=1;shape=mxgraph.flowchart.terminator;whiteSpace=wrap;" vertex="1" parent="WIyWlLk6GJQsqaUBKTNV-1">
          <mxGeometry x="980" y="1150" width="100" height="40" as="geometry" />
        </mxCell>
        <mxCell id="OP_QUCVTjhbAKhcLgrXL-93" style="edgeStyle=orthogonalEdgeStyle;rounded=0;orthogonalLoop=1;jettySize=auto;html=1;entryX=0;entryY=0.75;entryDx=0;entryDy=0;" edge="1" parent="WIyWlLk6GJQsqaUBKTNV-1" source="OP_QUCVTjhbAKhcLgrXL-60" target="OP_QUCVTjhbAKhcLgrXL-79">
          <mxGeometry relative="1" as="geometry" />
        </mxCell>
        <mxCell id="OP_QUCVTjhbAKhcLgrXL-60" value="&lt;font style=&quot;font-size: 8px;&quot;&gt;Pay with:&amp;nbsp;&lt;br&gt;1. BTC&lt;br&gt;2. ETH&lt;br&gt;3. BNB&lt;br&gt;4. TRX&lt;br&gt;5. USDT&lt;br&gt;&lt;br&gt;&lt;/font&gt;" style="rhombus;whiteSpace=wrap;html=1;strokeWidth=2;rounded=1;arcSize=11;" vertex="1" parent="WIyWlLk6GJQsqaUBKTNV-1">
          <mxGeometry x="1100" y="275" width="116.25" height="125" as="geometry" />
        </mxCell>
        <mxCell id="OP_QUCVTjhbAKhcLgrXL-99" style="edgeStyle=orthogonalEdgeStyle;rounded=0;orthogonalLoop=1;jettySize=auto;html=1;entryX=0;entryY=0.5;entryDx=0;entryDy=0;" edge="1" parent="WIyWlLk6GJQsqaUBKTNV-1" source="OP_QUCVTjhbAKhcLgrXL-79" target="OP_QUCVTjhbAKhcLgrXL-97">
          <mxGeometry relative="1" as="geometry" />
        </mxCell>
        <mxCell id="OP_QUCVTjhbAKhcLgrXL-79" value="2" style="html=1;strokeWidth=2;shape=manualInput;whiteSpace=wrap;rounded=1;size=26;arcSize=11;" vertex="1" parent="WIyWlLk6GJQsqaUBKTNV-1">
          <mxGeometry x="1260" y="302.5" width="50" height="45" as="geometry" />
        </mxCell>
        <mxCell id="OP_QUCVTjhbAKhcLgrXL-82" style="edgeStyle=orthogonalEdgeStyle;rounded=0;orthogonalLoop=1;jettySize=auto;html=1;" edge="1" parent="WIyWlLk6GJQsqaUBKTNV-1" source="OP_QUCVTjhbAKhcLgrXL-83" target="OP_QUCVTjhbAKhcLgrXL-85">
          <mxGeometry relative="1" as="geometry">
            <mxPoint x="1448.4399999999998" y="560" as="targetPoint" />
          </mxGeometry>
        </mxCell>
        <mxCell id="OP_QUCVTjhbAKhcLgrXL-83" value="&lt;span style=&quot;color: rgb(0, 0, 0); font-family: Helvetica; font-size: 8px; font-style: normal; font-variant-ligatures: normal; font-variant-caps: normal; font-weight: 400; letter-spacing: normal; orphans: 2; text-align: center; text-indent: 0px; text-transform: none; widows: 2; word-spacing: 0px; -webkit-text-stroke-width: 0px; background-color: rgb(251, 251, 251); text-decoration-thickness: initial; text-decoration-style: initial; text-decoration-color: initial; float: none; display: inline !important;&quot;&gt;How do we &lt;br&gt;estimate your pay:&amp;nbsp;&lt;/span&gt;&lt;br style=&quot;border-color: var(--border-color); color: rgb(0, 0, 0); font-family: Helvetica; font-size: 8px; font-style: normal; font-variant-ligatures: normal; font-variant-caps: normal; font-weight: 400; letter-spacing: normal; orphans: 2; text-align: center; text-indent: 0px; text-transform: none; widows: 2; word-spacing: 0px; -webkit-text-stroke-width: 0px; background-color: rgb(251, 251, 251); text-decoration-thickness: initial; text-decoration-style: initial; text-decoration-color: initial;&quot;&gt;&lt;span style=&quot;color: rgb(0, 0, 0); font-family: Helvetica; font-size: 8px; font-style: normal; font-variant-ligatures: normal; font-variant-caps: normal; font-weight: 400; letter-spacing: normal; orphans: 2; text-align: center; text-indent: 0px; text-transform: none; widows: 2; word-spacing: 0px; -webkit-text-stroke-width: 0px; background-color: rgb(251, 251, 251); text-decoration-thickness: initial; text-decoration-style: initial; text-decoration-color: initial; float: none; display: inline !important;&quot;&gt;1. Naira&lt;/span&gt;&lt;br style=&quot;border-color: var(--border-color); color: rgb(0, 0, 0); font-family: Helvetica; font-size: 8px; font-style: normal; font-variant-ligatures: normal; font-variant-caps: normal; font-weight: 400; letter-spacing: normal; orphans: 2; text-align: center; text-indent: 0px; text-transform: none; widows: 2; word-spacing: 0px; -webkit-text-stroke-width: 0px; background-color: rgb(251, 251, 251); text-decoration-thickness: initial; text-decoration-style: initial; text-decoration-color: initial;&quot;&gt;&lt;span style=&quot;color: rgb(0, 0, 0); font-family: Helvetica; font-size: 8px; font-style: normal; font-variant-ligatures: normal; font-variant-caps: normal; font-weight: 400; letter-spacing: normal; orphans: 2; text-align: center; text-indent: 0px; text-transform: none; widows: 2; word-spacing: 0px; -webkit-text-stroke-width: 0px; background-color: rgb(251, 251, 251); text-decoration-thickness: initial; text-decoration-style: initial; text-decoration-color: initial; float: none; display: inline !important;&quot;&gt;2. Dollar&lt;/span&gt;&lt;br style=&quot;border-color: var(--border-color); color: rgb(0, 0, 0); font-family: Helvetica; font-size: 8px; font-style: normal; font-variant-ligatures: normal; font-variant-caps: normal; font-weight: 400; letter-spacing: normal; orphans: 2; text-align: center; text-indent: 0px; text-transform: none; widows: 2; word-spacing: 0px; -webkit-text-stroke-width: 0px; background-color: rgb(251, 251, 251); text-decoration-thickness: initial; text-decoration-style: initial; text-decoration-color: initial;&quot;&gt;&lt;span style=&quot;color: rgb(0, 0, 0); font-family: Helvetica; font-size: 8px; font-style: normal; font-variant-ligatures: normal; font-variant-caps: normal; font-weight: 400; letter-spacing: normal; orphans: 2; text-align: center; text-indent: 0px; text-transform: none; widows: 2; word-spacing: 0px; -webkit-text-stroke-width: 0px; background-color: rgb(251, 251, 251); text-decoration-thickness: initial; text-decoration-style: initial; text-decoration-color: initial; float: none; display: inline !important;&quot;&gt;3.Crypto&lt;/span&gt;&lt;br style=&quot;border-color: var(--border-color); color: rgb(0, 0, 0); font-family: Helvetica; font-size: 8px; font-style: normal; font-variant-ligatures: normal; font-variant-caps: normal; font-weight: 400; letter-spacing: normal; orphans: 2; text-align: center; text-indent: 0px; text-transform: none; widows: 2; word-spacing: 0px; -webkit-text-stroke-width: 0px; background-color: rgb(251, 251, 251); text-decoration-thickness: initial; text-decoration-style: initial; text-decoration-color: initial;&quot;&gt;" style="rhombus;whiteSpace=wrap;html=1;strokeWidth=2;rounded=1;arcSize=11;" vertex="1" parent="WIyWlLk6GJQsqaUBKTNV-1">
          <mxGeometry x="1373.4399999999998" y="365" width="156.88" height="140" as="geometry" />
        </mxCell>
        <mxCell id="OP_QUCVTjhbAKhcLgrXL-84" value="" style="edgeStyle=orthogonalEdgeStyle;rounded=0;orthogonalLoop=1;jettySize=auto;html=1;" edge="1" parent="WIyWlLk6GJQsqaUBKTNV-1" source="OP_QUCVTjhbAKhcLgrXL-85" target="OP_QUCVTjhbAKhcLgrXL-87">
          <mxGeometry relative="1" as="geometry" />
        </mxCell>
        <mxCell id="OP_QUCVTjhbAKhcLgrXL-85" value="&lt;span style=&quot;font-size: 8px;&quot;&gt;Enter the amount to pay in naira&lt;/span&gt;" style="html=1;strokeWidth=2;shape=manualInput;whiteSpace=wrap;rounded=1;size=26;arcSize=11;" vertex="1" parent="WIyWlLk6GJQsqaUBKTNV-1">
          <mxGeometry x="1400.32" y="540" width="100" height="80" as="geometry" />
        </mxCell>
        <mxCell id="OP_QUCVTjhbAKhcLgrXL-86" style="edgeStyle=orthogonalEdgeStyle;rounded=0;orthogonalLoop=1;jettySize=auto;html=1;" edge="1" parent="WIyWlLk6GJQsqaUBKTNV-1" source="OP_QUCVTjhbAKhcLgrXL-87" target="OP_QUCVTjhbAKhcLgrXL-89">
          <mxGeometry relative="1" as="geometry">
            <mxPoint x="1450.32" y="790" as="targetPoint" />
          </mxGeometry>
        </mxCell>
        <mxCell id="OP_QUCVTjhbAKhcLgrXL-87" value="&lt;span style=&quot;border-color: var(--border-color); color: rgb(0, 0, 0); font-family: Helvetica; font-style: normal; font-variant-ligatures: normal; font-variant-caps: normal; font-weight: 400; letter-spacing: normal; orphans: 2; text-align: center; text-indent: 0px; text-transform: none; widows: 2; word-spacing: 0px; -webkit-text-stroke-width: 0px; text-decoration-thickness: initial; text-decoration-style: initial; text-decoration-color: initial; font-size: 8px; background-color: rgb(251, 251, 251); float: none; display: inline !important;&quot;&gt;How do we&lt;br style=&quot;border-color: var(--border-color);&quot;&gt;add your charges:&amp;nbsp;&lt;/span&gt;&lt;br style=&quot;border-color: var(--border-color); color: rgb(0, 0, 0); font-family: Helvetica; font-style: normal; font-variant-ligatures: normal; font-variant-caps: normal; font-weight: 400; letter-spacing: normal; orphans: 2; text-align: center; text-indent: 0px; text-transform: none; widows: 2; word-spacing: 0px; -webkit-text-stroke-width: 0px; text-decoration-thickness: initial; text-decoration-style: initial; text-decoration-color: initial; font-size: 8px; background-color: rgb(251, 251, 251);&quot;&gt;&lt;span style=&quot;border-color: var(--border-color); color: rgb(0, 0, 0); font-family: Helvetica; font-style: normal; font-variant-ligatures: normal; font-variant-caps: normal; font-weight: 400; letter-spacing: normal; orphans: 2; text-align: center; text-indent: 0px; text-transform: none; widows: 2; word-spacing: 0px; -webkit-text-stroke-width: 0px; text-decoration-thickness: initial; text-decoration-style: initial; text-decoration-color: initial; font-size: 8px; background-color: rgb(251, 251, 251); float: none; display: inline !important;&quot;&gt;1. add charges&amp;nbsp;&lt;/span&gt;&lt;br style=&quot;border-color: var(--border-color); color: rgb(0, 0, 0); font-family: Helvetica; font-style: normal; font-variant-ligatures: normal; font-variant-caps: normal; font-weight: 400; letter-spacing: normal; orphans: 2; text-align: center; text-indent: 0px; text-transform: none; widows: 2; word-spacing: 0px; -webkit-text-stroke-width: 0px; text-decoration-thickness: initial; text-decoration-style: initial; text-decoration-color: initial; font-size: 8px; background-color: rgb(251, 251, 251);&quot;&gt;&lt;span style=&quot;border-color: var(--border-color); color: rgb(0, 0, 0); font-family: Helvetica; font-style: normal; font-variant-ligatures: normal; font-variant-caps: normal; font-weight: 400; letter-spacing: normal; orphans: 2; text-align: center; text-indent: 0px; text-transform: none; widows: 2; word-spacing: 0px; -webkit-text-stroke-width: 0px; text-decoration-thickness: initial; text-decoration-style: initial; text-decoration-color: initial; font-size: 8px; background-color: rgb(251, 251, 251); float: none; display: inline !important;&quot;&gt;2. Don&#39;t add charges&lt;/span&gt;&lt;br style=&quot;border-color: var(--border-color); color: rgb(0, 0, 0); font-family: Helvetica; font-style: normal; font-variant-ligatures: normal; font-variant-caps: normal; font-weight: 400; letter-spacing: normal; orphans: 2; text-align: center; text-indent: 0px; text-transform: none; widows: 2; word-spacing: 0px; -webkit-text-stroke-width: 0px; text-decoration-thickness: initial; text-decoration-style: initial; text-decoration-color: initial; font-size: 8px; background-color: rgb(251, 251, 251);&quot;&gt;&lt;span style=&quot;border-color: var(--border-color); color: rgb(0, 0, 0); font-family: Helvetica; font-style: normal; font-variant-ligatures: normal; font-variant-caps: normal; font-weight: 400; letter-spacing: normal; orphans: 2; text-align: center; text-indent: 0px; text-transform: none; widows: 2; word-spacing: 0px; -webkit-text-stroke-width: 0px; text-decoration-thickness: initial; text-decoration-style: initial; text-decoration-color: initial; font-size: 8px; background-color: rgb(251, 251, 251); float: none; display: inline !important;&quot;&gt;3.Crypto&lt;/span&gt;" style="rhombus;whiteSpace=wrap;html=1;strokeWidth=2;rounded=1;arcSize=11;" vertex="1" parent="WIyWlLk6GJQsqaUBKTNV-1">
          <mxGeometry x="1380.32" y="640" width="140" height="110" as="geometry" />
        </mxCell>
        <mxCell id="OP_QUCVTjhbAKhcLgrXL-88" style="edgeStyle=orthogonalEdgeStyle;rounded=0;orthogonalLoop=1;jettySize=auto;html=1;" edge="1" parent="WIyWlLk6GJQsqaUBKTNV-1" source="OP_QUCVTjhbAKhcLgrXL-89" target="OP_QUCVTjhbAKhcLgrXL-90">
          <mxGeometry relative="1" as="geometry">
            <mxPoint x="1450.32" y="890" as="targetPoint" />
          </mxGeometry>
        </mxCell>
        <mxCell id="OP_QUCVTjhbAKhcLgrXL-89" value="&lt;font style=&quot;font-size: 8px;&quot;&gt;You would receive Nxx,xxx&amp;nbsp;&lt;/font&gt;&amp;nbsp;&lt;br&gt;&lt;font style=&quot;font-size: 8px;&quot;&gt;You will send 0.xxx BTC,&lt;br&gt;&lt;/font&gt;&lt;font style=&quot;font-size: 8px;&quot;&gt;wallet address is 0x123wedsw3&lt;/font&gt;" style="strokeWidth=2;html=1;shape=mxgraph.flowchart.display;whiteSpace=wrap;" vertex="1" parent="WIyWlLk6GJQsqaUBKTNV-1">
          <mxGeometry x="1370.32" y="790" width="160" height="80" as="geometry" />
        </mxCell>
        <mxCell id="OP_QUCVTjhbAKhcLgrXL-90" value="End process" style="strokeWidth=2;html=1;shape=mxgraph.flowchart.terminator;whiteSpace=wrap;" vertex="1" parent="WIyWlLk6GJQsqaUBKTNV-1">
          <mxGeometry x="1400.32" y="910" width="100" height="40" as="geometry" />
        </mxCell>
        <mxCell id="OP_QUCVTjhbAKhcLgrXL-98" style="edgeStyle=orthogonalEdgeStyle;rounded=0;orthogonalLoop=1;jettySize=auto;html=1;entryX=0.5;entryY=0;entryDx=0;entryDy=0;" edge="1" parent="WIyWlLk6GJQsqaUBKTNV-1" source="OP_QUCVTjhbAKhcLgrXL-97" target="OP_QUCVTjhbAKhcLgrXL-83">
          <mxGeometry relative="1" as="geometry" />
        </mxCell>
        <mxCell id="OP_QUCVTjhbAKhcLgrXL-97" value="&lt;font style=&quot;font-size: 8px;&quot;&gt;Choose network:&amp;nbsp;&lt;br&gt;1. BTC&lt;br&gt;&lt;br&gt;&lt;/font&gt;" style="rhombus;whiteSpace=wrap;html=1;strokeWidth=2;rounded=1;arcSize=11;" vertex="1" parent="WIyWlLk6GJQsqaUBKTNV-1">
          <mxGeometry x="1393.75" y="225" width="116.25" height="105" as="geometry" />
        </mxCell>
      </root>
    </mxGraphModel>
  </diagram>
</mxfile>
